<?xml version="1.0" standalone="yes"?><svg xmlns="http://www.w3.org/2000/svg" version="1.1" width="264" height="264" viewBox="0 0 264 264" shape-rendering="crispEdges"><rect x="0" y="0" width="264" height="264" fill="white"/><path fill="black" d="M16 16h8v8H16V16M24 16h8v8H24V16M32 16h8v8H32V16M40 16h8v8H40V16M48 16h8v8H48V16M56 16h8v8H56V16M64 16h8v8H64V16M80 16h8v8H80V16M88 16h8v8H88V16M96 16h8v8H96V16M120 16h8v8H120V16M144 16h8v8H144V16M168 16h8v8H168V16M176 16h8v8H176V16M192 16h8v8H192V16M200 16h8v8H200V16M208 16h8v8H208V16M216 16h8v8H216V16M224 16h8v8H224V16M232 16h8v8H232V16M240 16h8v8H240V16M16 24h8v8H16V24M64 24h8v8H64V24M80 24h8v8H80V24M88 24h8v8H88V24M104 24h8v8H104V24M144 24h8v8H144V24M152 24h8v8H152V24M160 24h8v8H160V24M192 24h8v8H192V24M240 24h8v8H240V24M16 32h8v8H16V32M32 32h8v8H32V32M40 32h8v8H40V32M48 32h8v8H48V32M64 32h8v8H64V32M96 32h8v8H96V32M104 32h8v8H104V32M112 32h8v8H112V32M120 32h8v8H120V32M192 32h8v8H192V32M208 32h8v8H208V32M216 32h8v8H216V32M224 32h8v8H224V32M240 32h8v8H240V32M16 40h8v8H16V40M32 40h8v8H32V40M40 40h8v8H40V40M48 40h8v8H48V40M64 40h8v8H64V40M80 40h8v8H80V40M88 40h8v8H88V40M96 40h8v8H96V40M104 40h8v8H104V40M152 40h8v8H152V40M176 40h8v8H176V40M192 40h8v8H192V40M208 40h8v8H208V40M216 40h8v8H216V40M224 40h8v8H224V40M240 40h8v8H240V40M16 48h8v8H16V48M32 48h8v8H32V48M40 48h8v8H40V48M48 48h8v8H48V48M64 48h8v8H64V48M96 48h8v8H96V48M104 48h8v8H104V48M120 48h8v8H120V48M128 48h8v8H128V48M136 48h8v8H136V48M144 48h8v8H144V48M168 48h8v8H168V48M192 48h8v8H192V48M208 48h8v8H208V48M216 48h8v8H216V48M224 48h8v8H224V48M240 48h8v8H240V48M16 56h8v8H16V56M64 56h8v8H64V56M88 56h8v8H88V56M104 56h8v8H104V56M112 56h8v8H112V56M128 56h8v8H128V56M144 56h8v8H144V56M152 56h8v8H152V56M160 56h8v8H160V56M168 56h8v8H168V56M176 56h8v8H176V56M192 56h8v8H192V56M240 56h8v8H240V56M16 64h8v8H16V64M24 64h8v8H24V64M32 64h8v8H32V64M40 64h8v8H40V64M48 64h8v8H48V64M56 64h8v8H56V64M64 64h8v8H64V64M80 64h8v8H80V64M96 64h8v8H96V64M112 64h8v8H112V64M128 64h8v8H128V64M144 64h8v8H144V64M160 64h8v8H160V64M176 64h8v8H176V64M192 64h8v8H192V64M200 64h8v8H200V64M208 64h8v8H208V64M216 64h8v8H216V64M224 64h8v8H224V64M232 64h8v8H232V64M240 64h8v8H240V64M80 72h8v8H80V72M88 72h8v8H88V72M120 72h8v8H120V72M128 72h8v8H128V72M144 72h8v8H144V72M152 72h8v8H152V72M160 72h8v8H160V72M16 80h8v8H16V80M32 80h8v8H32V80M40 80h8v8H40V80M56 80h8v8H56V80M64 80h8v8H64V80M72 80h8v8H72V80M88 80h8v8H88V80M96 80h8v8H96V80M112 80h8v8H112V80M120 80h8v8H120V80M128 80h8v8H128V80M152 80h8v8H152V80M160 80h8v8H160V80M168 80h8v8H168V80M176 80h8v8H176V80M192 80h8v8H192V80M216 80h8v8H216V80M232 80h8v8H232V80M240 80h8v8H240V80M24 88h8v8H24V88M32 88h8v8H32V88M48 88h8v8H48V88M56 88h8v8H56V88M80 88h8v8H80V88M96 88h8v8H96V88M144 88h8v8H144V88M152 88h8v8H152V88M160 88h8v8H160V88M168 88h8v8H168V88M176 88h8v8H176V88M184 88h8v8H184V88M192 88h8v8H192V88M200 88h8v8H200V88M208 88h8v8H208V88M240 88h8v8H240V88M16 96h8v8H16V96M64 96h8v8H64V96M88 96h8v8H88V96M104 96h8v8H104V96M128 96h8v8H128V96M152 96h8v8H152V96M160 96h8v8H160V96M200 96h8v8H200V96M208 96h8v8H208V96M224 96h8v8H224V96M232 96h8v8H232V96M16 104h8v8H16V104M32 104h8v8H32V104M80 104h8v8H80V104M88 104h8v8H88V104M96 104h8v8H96V104M104 104h8v8H104V104M120 104h8v8H120V104M128 104h8v8H128V104M144 104h8v8H144V104M160 104h8v8H160V104M184 104h8v8H184V104M192 104h8v8H192V104M200 104h8v8H200V104M208 104h8v8H208V104M240 104h8v8H240V104M16 112h8v8H16V112M32 112h8v8H32V112M48 112h8v8H48V112M64 112h8v8H64V112M72 112h8v8H72V112M96 112h8v8H96V112M104 112h8v8H104V112M152 112h8v8H152V112M216 112h8v8H216V112M224 112h8v8H224V112M16 120h8v8H16V120M24 120h8v8H24V120M32 120h8v8H32V120M48 120h8v8H48V120M56 120h8v8H56V120M72 120h8v8H72V120M80 120h8v8H80V120M96 120h8v8H96V120M104 120h8v8H104V120M120 120h8v8H120V120M136 120h8v8H136V120M144 120h8v8H144V120M152 120h8v8H152V120M168 120h8v8H168V120M184 120h8v8H184V120M192 120h8v8H192V120M224 120h8v8H224V120M232 120h8v8H232V120M240 120h8v8H240V120M16 128h8v8H16V128M32 128h8v8H32V128M48 128h8v8H48V128M56 128h8v8H56V128M64 128h8v8H64V128M72 128h8v8H72V128M88 128h8v8H88V128M112 128h8v8H112V128M128 128h8v8H128V128M144 128h8v8H144V128M160 128h8v8H160V128M168 128h8v8H168V128M176 128h8v8H176V128M192 128h8v8H192V128M200 128h8v8H200V128M224 128h8v8H224V128M232 128h8v8H232V128M240 128h8v8H240V128M16 136h8v8H16V136M40 136h8v8H40V136M48 136h8v8H48V136M56 136h8v8H56V136M72 136h8v8H72V136M96 136h8v8H96V136M120 136h8v8H120V136M144 136h8v8H144V136M168 136h8v8H168V136M176 136h8v8H176V136M192 136h8v8H192V136M200 136h8v8H200V136M208 136h8v8H208V136M232 136h8v8H232V136M24 144h8v8H24V144M32 144h8v8H32V144M40 144h8v8H40V144M64 144h8v8H64V144M96 144h8v8H96V144M112 144h8v8H112V144M136 144h8v8H136V144M160 144h8v8H160V144M168 144h8v8H168V144M176 144h8v8H176V144M200 144h8v8H200V144M208 144h8v8H208V144M216 144h8v8H216V144M232 144h8v8H232V144M32 152h8v8H32V152M56 152h8v8H56V152M72 152h8v8H72V152M88 152h8v8H88V152M104 152h8v8H104V152M120 152h8v8H120V152M136 152h8v8H136V152M144 152h8v8H144V152M160 152h8v8H160V152M200 152h8v8H200V152M216 152h8v8H216V152M224 152h8v8H224V152M232 152h8v8H232V152M16 160h8v8H16V160M32 160h8v8H32V160M40 160h8v8H40V160M48 160h8v8H48V160M56 160h8v8H56V160M64 160h8v8H64V160M80 160h8v8H80V160M96 160h8v8H96V160M112 160h8v8H112V160M136 160h8v8H136V160M144 160h8v8H144V160M152 160h8v8H152V160M160 160h8v8H160V160M176 160h8v8H176V160M192 160h8v8H192V160M224 160h8v8H224V160M40 168h8v8H40V168M88 168h8v8H88V168M96 168h8v8H96V168M104 168h8v8H104V168M136 168h8v8H136V168M144 168h8v8H144V168M152 168h8v8H152V168M192 168h8v8H192V168M200 168h8v8H200V168M208 168h8v8H208V168M224 168h8v8H224V168M24 176h8v8H24V176M56 176h8v8H56V176M64 176h8v8H64V176M72 176h8v8H72V176M80 176h8v8H80V176M104 176h8v8H104V176M112 176h8v8H112V176M120 176h8v8H120V176M152 176h8v8H152V176M176 176h8v8H176V176M184 176h8v8H184V176M192 176h8v8H192V176M200 176h8v8H200V176M208 176h8v8H208V176M216 176h8v8H216V176M224 176h8v8H224V176M80 184h8v8H80V184M104 184h8v8H104V184M112 184h8v8H112V184M120 184h8v8H120V184M128 184h8v8H128V184M144 184h8v8H144V184M152 184h8v8H152V184M160 184h8v8H160V184M176 184h8v8H176V184M208 184h8v8H208V184M216 184h8v8H216V184M224 184h8v8H224V184M232 184h8v8H232V184M240 184h8v8H240V184M16 192h8v8H16V192M24 192h8v8H24V192M32 192h8v8H32V192M40 192h8v8H40V192M48 192h8v8H48V192M56 192h8v8H56V192M64 192h8v8H64V192M80 192h8v8H80V192M96 192h8v8H96V192M104 192h8v8H104V192M120 192h8v8H120V192M144 192h8v8H144V192M152 192h8v8H152V192M160 192h8v8H160V192M168 192h8v8H168V192M176 192h8v8H176V192M192 192h8v8H192V192M208 192h8v8H208V192M216 192h8v8H216V192M232 192h8v8H232V192M16 200h8v8H16V200M64 200h8v8H64V200M80 200h8v8H80V200M96 200h8v8H96V200M112 200h8v8H112V200M136 200h8v8H136V200M160 200h8v8H160V200M176 200h8v8H176V200M208 200h8v8H208V200M216 200h8v8H216V200M232 200h8v8H232V200M240 200h8v8H240V200M16 208h8v8H16V208M32 208h8v8H32V208M40 208h8v8H40V208M48 208h8v8H48V208M64 208h8v8H64V208M96 208h8v8H96V208M112 208h8v8H112V208M128 208h8v8H128V208M152 208h8v8H152V208M176 208h8v8H176V208M184 208h8v8H184V208M192 208h8v8H192V208M200 208h8v8H200V208M208 208h8v8H208V208M224 208h8v8H224V208M16 216h8v8H16V216M32 216h8v8H32V216M40 216h8v8H40V216M48 216h8v8H48V216M64 216h8v8H64V216M80 216h8v8H80V216M128 216h8v8H128V216M136 216h8v8H136V216M144 216h8v8H144V216M152 216h8v8H152V216M168 216h8v8H168V216M184 216h8v8H184V216M208 216h8v8H208V216M216 216h8v8H216V216M240 216h8v8H240V216M16 224h8v8H16V224M32 224h8v8H32V224M40 224h8v8H40V224M48 224h8v8H48V224M64 224h8v8H64V224M80 224h8v8H80V224M104 224h8v8H104V224M120 224h8v8H120V224M128 224h8v8H128V224M144 224h8v8H144V224M152 224h8v8H152V224M160 224h8v8H160V224M176 224h8v8H176V224M200 224h8v8H200V224M224 224h8v8H224V224M240 224h8v8H240V224M16 232h8v8H16V232M64 232h8v8H64V232M88 232h8v8H88V232M96 232h8v8H96V232M104 232h8v8H104V232M112 232h8v8H112V232M120 232h8v8H120V232M136 232h8v8H136V232M144 232h8v8H144V232M160 232h8v8H160V232M176 232h8v8H176V232M184 232h8v8H184V232M200 232h8v8H200V232M208 232h8v8H208V232M216 232h8v8H216V232M232 232h8v8H232V232M16 240h8v8H16V240M24 240h8v8H24V240M32 240h8v8H32V240M40 240h8v8H40V240M48 240h8v8H48V240M56 240h8v8H56V240M64 240h8v8H64V240M80 240h8v8H80V240M88 240h8v8H88V240M136 240h8v8H136V240M160 240h8v8H160V240M168 240h8v8H168V240M176 240h8v8H176V240M184 240h8v8H184V240M192 240h8v8H192V240M208 240h8v8H208V240M232 240h8v8H232V240"/></svg>