<?xml version="1.0" standalone="yes"?><svg xmlns="http://www.w3.org/2000/svg" version="1.1" width="264" height="264" viewBox="0 0 264 264" shape-rendering="crispEdges"><rect x="0" y="0" width="264" height="264" fill="white"/><path fill="black" d="M16 16h8v8H16V16M24 16h8v8H24V16M32 16h8v8H32V16M40 16h8v8H40V16M48 16h8v8H48V16M56 16h8v8H56V16M64 16h8v8H64V16M80 16h8v8H80V16M88 16h8v8H88V16M104 16h8v8H104V16M112 16h8v8H112V16M120 16h8v8H120V16M128 16h8v8H128V16M136 16h8v8H136V16M152 16h8v8H152V16M192 16h8v8H192V16M200 16h8v8H200V16M208 16h8v8H208V16M216 16h8v8H216V16M224 16h8v8H224V16M232 16h8v8H232V16M240 16h8v8H240V16M16 24h8v8H16V24M64 24h8v8H64V24M88 24h8v8H88V24M96 24h8v8H96V24M104 24h8v8H104V24M112 24h8v8H112V24M136 24h8v8H136V24M160 24h8v8H160V24M176 24h8v8H176V24M192 24h8v8H192V24M240 24h8v8H240V24M16 32h8v8H16V32M32 32h8v8H32V32M40 32h8v8H40V32M48 32h8v8H48V32M64 32h8v8H64V32M80 32h8v8H80V32M88 32h8v8H88V32M96 32h8v8H96V32M112 32h8v8H112V32M120 32h8v8H120V32M152 32h8v8H152V32M160 32h8v8H160V32M176 32h8v8H176V32M192 32h8v8H192V32M208 32h8v8H208V32M216 32h8v8H216V32M224 32h8v8H224V32M240 32h8v8H240V32M16 40h8v8H16V40M32 40h8v8H32V40M40 40h8v8H40V40M48 40h8v8H48V40M64 40h8v8H64V40M136 40h8v8H136V40M144 40h8v8H144V40M152 40h8v8H152V40M160 40h8v8H160V40M176 40h8v8H176V40M192 40h8v8H192V40M208 40h8v8H208V40M216 40h8v8H216V40M224 40h8v8H224V40M240 40h8v8H240V40M16 48h8v8H16V48M32 48h8v8H32V48M40 48h8v8H40V48M48 48h8v8H48V48M64 48h8v8H64V48M96 48h8v8H96V48M112 48h8v8H112V48M136 48h8v8H136V48M144 48h8v8H144V48M160 48h8v8H160V48M192 48h8v8H192V48M208 48h8v8H208V48M216 48h8v8H216V48M224 48h8v8H224V48M240 48h8v8H240V48M16 56h8v8H16V56M64 56h8v8H64V56M80 56h8v8H80V56M88 56h8v8H88V56M112 56h8v8H112V56M120 56h8v8H120V56M128 56h8v8H128V56M144 56h8v8H144V56M152 56h8v8H152V56M160 56h8v8H160V56M176 56h8v8H176V56M192 56h8v8H192V56M240 56h8v8H240V56M16 64h8v8H16V64M24 64h8v8H24V64M32 64h8v8H32V64M40 64h8v8H40V64M48 64h8v8H48V64M56 64h8v8H56V64M64 64h8v8H64V64M80 64h8v8H80V64M96 64h8v8H96V64M112 64h8v8H112V64M128 64h8v8H128V64M144 64h8v8H144V64M160 64h8v8H160V64M176 64h8v8H176V64M192 64h8v8H192V64M200 64h8v8H200V64M208 64h8v8H208V64M216 64h8v8H216V64M224 64h8v8H224V64M232 64h8v8H232V64M240 64h8v8H240V64M88 72h8v8H88V72M96 72h8v8H96V72M104 72h8v8H104V72M112 72h8v8H112V72M120 72h8v8H120V72M160 72h8v8H160V72M176 72h8v8H176V72M16 80h8v8H16V80M32 80h8v8H32V80M64 80h8v8H64V80M72 80h8v8H72V80M88 80h8v8H88V80M96 80h8v8H96V80M112 80h8v8H112V80M120 80h8v8H120V80M136 80h8v8H136V80M144 80h8v8H144V80M168 80h8v8H168V80M200 80h8v8H200V80M224 80h8v8H224V80M240 80h8v8H240V80M24 88h8v8H24V88M40 88h8v8H40V88M48 88h8v8H48V88M88 88h8v8H88V88M104 88h8v8H104V88M144 88h8v8H144V88M152 88h8v8H152V88M168 88h8v8H168V88M176 88h8v8H176V88M192 88h8v8H192V88M200 88h8v8H200V88M232 88h8v8H232V88M240 88h8v8H240V88M16 96h8v8H16V96M56 96h8v8H56V96M64 96h8v8H64V96M88 96h8v8H88V96M112 96h8v8H112V96M120 96h8v8H120V96M128 96h8v8H128V96M144 96h8v8H144V96M152 96h8v8H152V96M168 96h8v8H168V96M184 96h8v8H184V96M192 96h8v8H192V96M200 96h8v8H200V96M216 96h8v8H216V96M224 96h8v8H224V96M240 96h8v8H240V96M32 104h8v8H32V104M40 104h8v8H40V104M80 104h8v8H80V104M96 104h8v8H96V104M104 104h8v8H104V104M128 104h8v8H128V104M136 104h8v8H136V104M144 104h8v8H144V104M160 104h8v8H160V104M168 104h8v8H168V104M184 104h8v8H184V104M200 104h8v8H200V104M208 104h8v8H208V104M216 104h8v8H216V104M32 112h8v8H32V112M48 112h8v8H48V112M64 112h8v8H64V112M80 112h8v8H80V112M120 112h8v8H120V112M128 112h8v8H128V112M144 112h8v8H144V112M168 112h8v8H168V112M176 112h8v8H176V112M192 112h8v8H192V112M200 112h8v8H200V112M240 112h8v8H240V112M16 120h8v8H16V120M24 120h8v8H24V120M48 120h8v8H48V120M72 120h8v8H72V120M88 120h8v8H88V120M96 120h8v8H96V120M104 120h8v8H104V120M112 120h8v8H112V120M120 120h8v8H120V120M128 120h8v8H128V120M168 120h8v8H168V120M176 120h8v8H176V120M184 120h8v8H184V120M192 120h8v8H192V120M200 120h8v8H200V120M232 120h8v8H232V120M240 120h8v8H240V120M24 128h8v8H24V128M32 128h8v8H32V128M48 128h8v8H48V128M64 128h8v8H64V128M88 128h8v8H88V128M96 128h8v8H96V128M136 128h8v8H136V128M152 128h8v8H152V128M168 128h8v8H168V128M184 128h8v8H184V128M192 128h8v8H192V128M208 128h8v8H208V128M240 128h8v8H240V128M16 136h8v8H16V136M48 136h8v8H48V136M72 136h8v8H72V136M80 136h8v8H80V136M88 136h8v8H88V136M96 136h8v8H96V136M104 136h8v8H104V136M120 136h8v8H120V136M136 136h8v8H136V136M144 136h8v8H144V136M160 136h8v8H160V136M168 136h8v8H168V136M176 136h8v8H176V136M184 136h8v8H184V136M192 136h8v8H192V136M200 136h8v8H200V136M16 144h8v8H16V144M48 144h8v8H48V144M56 144h8v8H56V144M64 144h8v8H64V144M120 144h8v8H120V144M144 144h8v8H144V144M176 144h8v8H176V144M184 144h8v8H184V144M192 144h8v8H192V144M200 144h8v8H200V144M240 144h8v8H240V144M24 152h8v8H24V152M112 152h8v8H112V152M136 152h8v8H136V152M160 152h8v8H160V152M168 152h8v8H168V152M192 152h8v8H192V152M200 152h8v8H200V152M224 152h8v8H224V152M232 152h8v8H232V152M240 152h8v8H240V152M16 160h8v8H16V160M24 160h8v8H24V160M32 160h8v8H32V160M48 160h8v8H48V160M56 160h8v8H56V160M64 160h8v8H64V160M72 160h8v8H72V160M96 160h8v8H96V160M104 160h8v8H104V160M112 160h8v8H112V160M120 160h8v8H120V160M128 160h8v8H128V160M136 160h8v8H136V160M160 160h8v8H160V160M168 160h8v8H168V160M200 160h8v8H200V160M216 160h8v8H216V160M240 160h8v8H240V160M32 168h8v8H32V168M48 168h8v8H48V168M56 168h8v8H56V168M72 168h8v8H72V168M128 168h8v8H128V168M136 168h8v8H136V168M144 168h8v8H144V168M176 168h8v8H176V168M192 168h8v8H192V168M208 168h8v8H208V168M16 176h8v8H16V176M24 176h8v8H24V176M32 176h8v8H32V176M48 176h8v8H48V176M64 176h8v8H64V176M80 176h8v8H80V176M88 176h8v8H88V176M96 176h8v8H96V176M120 176h8v8H120V176M128 176h8v8H128V176M136 176h8v8H136V176M160 176h8v8H160V176M176 176h8v8H176V176M184 176h8v8H184V176M192 176h8v8H192V176M200 176h8v8H200V176M208 176h8v8H208V176M216 176h8v8H216V176M232 176h8v8H232V176M80 184h8v8H80V184M112 184h8v8H112V184M120 184h8v8H120V184M128 184h8v8H128V184M136 184h8v8H136V184M144 184h8v8H144V184M152 184h8v8H152V184M176 184h8v8H176V184M208 184h8v8H208V184M216 184h8v8H216V184M224 184h8v8H224V184M240 184h8v8H240V184M16 192h8v8H16V192M24 192h8v8H24V192M32 192h8v8H32V192M40 192h8v8H40V192M48 192h8v8H48V192M56 192h8v8H56V192M64 192h8v8H64V192M80 192h8v8H80V192M112 192h8v8H112V192M136 192h8v8H136V192M152 192h8v8H152V192M176 192h8v8H176V192M192 192h8v8H192V192M208 192h8v8H208V192M240 192h8v8H240V192M16 200h8v8H16V200M64 200h8v8H64V200M88 200h8v8H88V200M120 200h8v8H120V200M136 200h8v8H136V200M144 200h8v8H144V200M160 200h8v8H160V200M168 200h8v8H168V200M176 200h8v8H176V200M208 200h8v8H208V200M232 200h8v8H232V200M16 208h8v8H16V208M32 208h8v8H32V208M40 208h8v8H40V208M48 208h8v8H48V208M64 208h8v8H64V208M104 208h8v8H104V208M120 208h8v8H120V208M144 208h8v8H144V208M168 208h8v8H168V208M176 208h8v8H176V208M184 208h8v8H184V208M192 208h8v8H192V208M200 208h8v8H200V208M208 208h8v8H208V208M216 208h8v8H216V208M232 208h8v8H232V208M240 208h8v8H240V208M16 216h8v8H16V216M32 216h8v8H32V216M40 216h8v8H40V216M48 216h8v8H48V216M64 216h8v8H64V216M88 216h8v8H88V216M112 216h8v8H112V216M136 216h8v8H136V216M144 216h8v8H144V216M168 216h8v8H168V216M176 216h8v8H176V216M184 216h8v8H184V216M200 216h8v8H200V216M208 216h8v8H208V216M216 216h8v8H216V216M224 216h8v8H224V216M240 216h8v8H240V216M16 224h8v8H16V224M32 224h8v8H32V224M40 224h8v8H40V224M48 224h8v8H48V224M64 224h8v8H64V224M80 224h8v8H80V224M96 224h8v8H96V224M128 224h8v8H128V224M136 224h8v8H136V224M144 224h8v8H144V224M184 224h8v8H184V224M208 224h8v8H208V224M232 224h8v8H232V224M240 224h8v8H240V224M16 232h8v8H16V232M64 232h8v8H64V232M88 232h8v8H88V232M96 232h8v8H96V232M112 232h8v8H112V232M128 232h8v8H128V232M144 232h8v8H144V232M176 232h8v8H176V232M200 232h8v8H200V232M216 232h8v8H216V232M16 240h8v8H16V240M24 240h8v8H24V240M32 240h8v8H32V240M40 240h8v8H40V240M48 240h8v8H48V240M56 240h8v8H56V240M64 240h8v8H64V240M80 240h8v8H80V240M88 240h8v8H88V240M120 240h8v8H120V240M128 240h8v8H128V240M144 240h8v8H144V240M176 240h8v8H176V240M216 240h8v8H216V240M240 240h8v8H240V240"/></svg>